<?xml version="1.0" encoding="UTF-8"?>
<svg xmlns="http://www.w3.org/2000/svg" viewBox="0 0 1200 900" role="img" aria-labelledby="title desc">
  <title id="title">FOX 40 CLASSIC WHISTLE</title>
  <desc id="desc">Black official whistle</desc>
  <defs>
    <linearGradient id="bg" x1="0" x2="1" y1="0" y2="1">
      <stop offset="0" stop-color="#0d1117"/>
      <stop offset=".5" stop-color="#050505"/>
      <stop offset="1" stop-color="#151515"/>
    </linearGradient>
    <linearGradient id="orangeGlow" x1="0" x2="1">
      <stop offset="0" stop-color="#c1121f"/>
      <stop offset="1" stop-color="#c44d59"/>
    </linearGradient>
    <pattern id="carbon" width="28" height="28" patternUnits="userSpaceOnUse" patternTransform="rotate(45)">
      <rect width="28" height="28" fill="#050505"/>
      <rect width="13" height="28" fill="#111"/>
      <path d="M0 0h28v4H0zM0 14h28v4H0z" fill="#1f2933" opacity=".45"/>
    </pattern>
    <filter id="shadow" x="-20%" y="-20%" width="140%" height="140%">
      <feDropShadow dx="0" dy="20" stdDeviation="18" flood-color="#000" flood-opacity=".45"/>
    </filter>
  </defs>
  <rect width="1200" height="900" fill="url(#bg)"/>
  <rect width="1200" height="900" fill="url(#carbon)" opacity=".34"/>
  <path d="M0 820C245 710 402 845 605 760c189-78 270-230 595-150v290H0z" fill="#c1121f" opacity=".12"/>
  <rect x="44" y="44" width="1112" height="812" rx="34" fill="#0b0d10" opacity=".72" stroke="#c1121f" stroke-opacity=".55" stroke-width="3"/>
  
  <g filter="url(#shadow)" transform="translate(105 70) rotate(-12 500 350)">
    <path d="M276 390c0-108 88-196 196-196h242c92 0 166 74 166 166s-74 166-166 166H472c-108 0-196-28-196-136z" fill="#111" stroke="#d6dde6" stroke-width="12"/>
    <circle cx="714" cy="360" r="104" fill="#050505" stroke="#d6dde6" stroke-width="14"/>
    <circle cx="714" cy="360" r="54" fill="#0b0d10" stroke="#334155" stroke-width="8"/>
    <path d="M302 458 162 526l140 80h306l36-80H366z" fill="#111" stroke="#d6dde6" stroke-width="10"/>
    <rect x="372" y="248" width="244" height="90" rx="14" fill="#c1121f"/>
    <text x="494" y="308" text-anchor="middle" fill="#f8fafc" font-family="Arial Black, Impact, sans-serif" font-size="42">FOX 40</text>
    <path d="M822 202c24-70 104-92 158-44" fill="none" stroke="#d6dde6" stroke-width="22" stroke-linecap="round"/>
    <path d="M162 526h280" stroke="#c1121f" stroke-width="12"/>
  </g>
  <text x="70" y="802" fill="#c44d59" font-family="Arial Black, Impact, sans-serif" font-size="34" letter-spacing="3">FOX 40 CLASSIC WHISTLE</text>
  <text x="70" y="842" fill="#d6dde6" font-family="Arial, sans-serif" font-size="22">Black official whistle</text>
</svg>