<?xml version="1.0" encoding="UTF-8"?>
<svg xmlns="http://www.w3.org/2000/svg" viewBox="0 0 1200 900" role="img" aria-labelledby="title desc">
  <title id="title">FOX 40 RTBO LANYARD</title>
  <desc id="desc">Whistle lanyard with RTBO branding</desc>
  <defs>
    <linearGradient id="bg" x1="0" x2="1" y1="0" y2="1">
      <stop offset="0" stop-color="#0d1117"/>
      <stop offset=".5" stop-color="#050505"/>
      <stop offset="1" stop-color="#151515"/>
    </linearGradient>
    <linearGradient id="orangeGlow" x1="0" x2="1">
      <stop offset="0" stop-color="#ff6a00"/>
      <stop offset="1" stop-color="#ff8a1d"/>
    </linearGradient>
    <pattern id="carbon" width="28" height="28" patternUnits="userSpaceOnUse" patternTransform="rotate(45)">
      <rect width="28" height="28" fill="#050505"/>
      <rect width="13" height="28" fill="#111"/>
      <path d="M0 0h28v4H0zM0 14h28v4H0z" fill="#1f2933" opacity=".45"/>
    </pattern>
    <filter id="shadow" x="-20%" y="-20%" width="140%" height="140%">
      <feDropShadow dx="0" dy="20" stdDeviation="18" flood-color="#000" flood-opacity=".45"/>
    </filter>
  </defs>
  <rect width="1200" height="900" fill="url(#bg)"/>
  <rect width="1200" height="900" fill="url(#carbon)" opacity=".34"/>
  <path d="M0 820C245 710 402 845 605 760c189-78 270-230 595-150v290H0z" fill="#ff6a00" opacity=".12"/>
  <rect x="44" y="44" width="1112" height="812" rx="34" fill="#0b0d10" opacity=".72" stroke="#ff6a00" stroke-opacity=".55" stroke-width="3"/>
  
  <g filter="url(#shadow)">
    <path d="M334 168c150-88 382-88 532 0" fill="none" stroke="#d6dde6" stroke-width="42" stroke-linecap="round"/>
    <path d="M334 168c150-88 382-88 532 0" fill="none" stroke="#111" stroke-width="26" stroke-linecap="round"/>
    <text x="600" y="134" text-anchor="middle" fill="#ff6a00" font-family="Arial Black, Impact, sans-serif" font-size="34">RAISING THE BAR OFFICIATING</text>
    <path d="M512 280h176l32 250H480z" fill="#111" stroke="#d6dde6" stroke-width="8"/>
    <circle cx="600" cy="284" r="34" fill="#0b0d10" stroke="#ff6a00" stroke-width="8"/>
    <path d="M430 530h340l-62 118H492z" fill="#111" stroke="#d6dde6" stroke-width="8"/>
    <rect x="516" y="354" width="168" height="68" rx="12" fill="#ff6a00"/>
    <text x="600" y="400" text-anchor="middle" fill="#f8fafc" font-family="Arial Black, Impact, sans-serif" font-size="34">FOX 40</text>
  </g>
  <text x="70" y="802" fill="#ff8a1d" font-family="Arial Black, Impact, sans-serif" font-size="34" letter-spacing="3">FOX 40 RTBO LANYARD</text>
  <text x="70" y="842" fill="#d6dde6" font-family="Arial, sans-serif" font-size="22">Whistle lanyard with RTBO branding</text>
</svg>