<?xml version="1.0" encoding="UTF-8"?>
<svg xmlns="http://www.w3.org/2000/svg" viewBox="0 0 1200 900" role="img" aria-labelledby="title desc">
  <title id="title">OFFICIAL RUNNING SHOES</title>
  <desc id="desc">Court movement and training shoes</desc>
  <defs>
    <linearGradient id="bg" x1="0" x2="1" y1="0" y2="1">
      <stop offset="0" stop-color="#0d1117"/>
      <stop offset=".5" stop-color="#050505"/>
      <stop offset="1" stop-color="#151515"/>
    </linearGradient>
    <linearGradient id="orangeGlow" x1="0" x2="1">
      <stop offset="0" stop-color="#c1121f"/>
      <stop offset="1" stop-color="#c44d59"/>
    </linearGradient>
    <pattern id="carbon" width="28" height="28" patternUnits="userSpaceOnUse" patternTransform="rotate(45)">
      <rect width="28" height="28" fill="#050505"/>
      <rect width="13" height="28" fill="#111"/>
      <path d="M0 0h28v4H0zM0 14h28v4H0z" fill="#1f2933" opacity=".45"/>
    </pattern>
    <filter id="shadow" x="-20%" y="-20%" width="140%" height="140%">
      <feDropShadow dx="0" dy="20" stdDeviation="18" flood-color="#000" flood-opacity=".45"/>
    </filter>
  </defs>
  <rect width="1200" height="900" fill="url(#bg)"/>
  <rect width="1200" height="900" fill="url(#carbon)" opacity=".34"/>
  <path d="M0 820C245 710 402 845 605 760c189-78 270-230 595-150v290H0z" fill="#c1121f" opacity=".12"/>
  <rect x="44" y="44" width="1112" height="812" rx="34" fill="#0b0d10" opacity=".72" stroke="#c1121f" stroke-opacity=".55" stroke-width="3"/>
  
  <g filter="url(#shadow)">
    <path d="M178 518c118-84 210-158 284-254 78 36 142 106 192 210 116 12 210 54 276 126 14 16 8 56-20 62H230c-74 0-104-98-52-144z" fill="#111827" stroke="#d6dde6" stroke-width="9"/>
    <path d="M542 488c94-48 188-44 282 0" fill="none" stroke="#c1121f" stroke-width="16" stroke-linecap="round"/>
    <path d="M252 604h640" stroke="#c1121f" stroke-width="18"/>
    <path d="M438 326 340 494M512 378 402 526M584 442 482 558" stroke="#d6dde6" stroke-width="10" stroke-linecap="round"/>
    
  <g transform="translate(666 502) scale(0.42)">
    <path d="M0 14 60 0l60 14v78c0 28-27 54-60 68C27 146 0 120 0 92z" fill="#111" stroke="#d6dde6" stroke-width="5"/>
    <path d="M13 25h94v42H13z" fill="#c1121f" opacity=".9"/>
    <text x="60" y="54" text-anchor="middle" fill="#f8fafc" font-family="Arial Black, Impact, sans-serif" font-size="27">RTBO</text>
    <path d="M18 85h84" stroke="#d6dde6" stroke-width="5"/>
    <circle cx="60" cy="106" r="25" fill="#c1121f" stroke="#111" stroke-width="5"/>
    <path d="M35 106h50M60 81v50M43 88c18 13 18 24 0 36M77 88c-18 13-18 24 0 36" stroke="#111" stroke-width="4" fill="none"/>
  </g>
  </g>
  <text x="70" y="802" fill="#c44d59" font-family="Arial Black, Impact, sans-serif" font-size="34" letter-spacing="3">OFFICIAL RUNNING SHOES</text>
  <text x="70" y="842" fill="#d6dde6" font-family="Arial, sans-serif" font-size="22">Court movement and training shoes</text>
</svg>