<?xml version="1.0" encoding="UTF-8"?>
<svg xmlns="http://www.w3.org/2000/svg" viewBox="0 0 1200 900" role="img" aria-labelledby="title desc">
  <title id="title">RTBO COFFEE MUG</title>
  <desc id="desc">Ceramic official-development mug</desc>
  <defs>
    <linearGradient id="bg" x1="0" x2="1" y1="0" y2="1">
      <stop offset="0" stop-color="#0d1117"/>
      <stop offset=".5" stop-color="#050505"/>
      <stop offset="1" stop-color="#151515"/>
    </linearGradient>
    <linearGradient id="orangeGlow" x1="0" x2="1">
      <stop offset="0" stop-color="#c1121f"/>
      <stop offset="1" stop-color="#c44d59"/>
    </linearGradient>
    <pattern id="carbon" width="28" height="28" patternUnits="userSpaceOnUse" patternTransform="rotate(45)">
      <rect width="28" height="28" fill="#050505"/>
      <rect width="13" height="28" fill="#111"/>
      <path d="M0 0h28v4H0zM0 14h28v4H0z" fill="#1f2933" opacity=".45"/>
    </pattern>
    <filter id="shadow" x="-20%" y="-20%" width="140%" height="140%">
      <feDropShadow dx="0" dy="20" stdDeviation="18" flood-color="#000" flood-opacity=".45"/>
    </filter>
  </defs>
  <rect width="1200" height="900" fill="url(#bg)"/>
  <rect width="1200" height="900" fill="url(#carbon)" opacity=".34"/>
  <path d="M0 820C245 710 402 845 605 760c189-78 270-230 595-150v290H0z" fill="#c1121f" opacity=".12"/>
  <rect x="44" y="44" width="1112" height="812" rx="34" fill="#0b0d10" opacity=".72" stroke="#c1121f" stroke-opacity=".55" stroke-width="3"/>
  
  <g filter="url(#shadow)">
    <path d="M382 260h394v318c0 82-66 148-148 148h-98c-82 0-148-66-148-148z" fill="#f8fafc" stroke="#d6dde6" stroke-width="9"/>
    <path d="M776 356h94c66 0 120 54 120 120s-54 120-120 120h-94v-70h86c28 0 50-22 50-50s-22-50-50-50h-86z" fill="#111" stroke="#d6dde6" stroke-width="9"/>
    <rect x="382" y="500" width="394" height="72" fill="#c1121f"/>
    
  <g transform="translate(518 320) scale(0.72)">
    <path d="M0 14 60 0l60 14v78c0 28-27 54-60 68C27 146 0 120 0 92z" fill="#111" stroke="#d6dde6" stroke-width="5"/>
    <path d="M13 25h94v42H13z" fill="#c1121f" opacity=".9"/>
    <text x="60" y="54" text-anchor="middle" fill="#f8fafc" font-family="Arial Black, Impact, sans-serif" font-size="27">RTBO</text>
    <path d="M18 85h84" stroke="#d6dde6" stroke-width="5"/>
    <circle cx="60" cy="106" r="25" fill="#c1121f" stroke="#111" stroke-width="5"/>
    <path d="M35 106h50M60 81v50M43 88c18 13 18 24 0 36M77 88c-18 13-18 24 0 36" stroke="#111" stroke-width="4" fill="none"/>
  </g>
  </g>
  <text x="70" y="802" fill="#c44d59" font-family="Arial Black, Impact, sans-serif" font-size="34" letter-spacing="3">RTBO COFFEE MUG</text>
  <text x="70" y="842" fill="#d6dde6" font-family="Arial, sans-serif" font-size="22">Ceramic official-development mug</text>
</svg>