<svg xmlns="http://www.w3.org/2000/svg" width="1280" height="760" viewBox="0 0 1280 760" role="img" aria-label="Annotated Stripe live keys screenshot">
  <rect width="1280" height="760" fill="#f7f7fb"/>
  <rect x="0" y="0" width="1280" height="74" fill="#635bff"/>
  <text x="36" y="47" font-family="Inter,Arial" font-size="26" font-weight="800" fill="#fff">Stripe Dashboard</text>
  <rect x="48" y="116" width="260" height="560" rx="18" fill="#fff" stroke="#d7dce8"/>
  <text x="82" y="166" font-family="Inter,Arial" font-size="18" font-weight="900" fill="#111827">Developers</text>
  <rect x="72" y="202" width="190" height="44" rx="12" fill="#635bff" opacity=".14"/>
  <text x="92" y="230" font-family="Inter,Arial" font-size="16" fill="#111827">API keys</text>
  <rect x="350" y="116" width="880" height="560" rx="18" fill="#fff" stroke="#d7dce8"/>
  <text x="390" y="166" font-family="Inter,Arial" font-size="26" font-weight="900" fill="#111827">API keys</text>
  <rect x="970" y="136" width="180" height="44" rx="999" fill="#111827"/>
  <text x="1010" y="164" font-family="Inter,Arial" font-size="15" font-weight="900" fill="#fff">Live mode</text>
  <rect x="390" y="228" width="780" height="86" rx="14" fill="#f9fafb" stroke="#d7dce8"/>
  <text x="420" y="262" font-family="Inter,Arial" font-size="16" font-weight="900" fill="#111827">Secret key</text>
  <text x="420" y="292" font-family="Menlo,Consolas,monospace" font-size="15" fill="#6b7280">sk_live_••••••••••••••••••••••••</text>
  <rect x="974" y="248" width="126" height="42" rx="999" fill="#f58220"/>
  <text x="1014" y="275" font-family="Inter,Arial" font-size="14" font-weight="900" fill="#111">Reveal</text>
  <text x="390" y="380" font-family="Inter,Arial" font-size="20" font-weight="900" fill="#111827">Copy this value into:</text>
  <rect x="390" y="414" width="780" height="74" rx="14" fill="#111"/>
  <text x="426" y="459" font-family="Menlo,Consolas,monospace" font-size="18" fill="#fbbf24">public_html/api/.env → STRIPE_SECRET_KEY=sk_live_...</text>
</svg>
