<svg xmlns="http://www.w3.org/2000/svg" viewBox="0 0 512 704" role="img" aria-labelledby="title desc">
  <title id="title">RTBO female profile placeholder</title>
  <desc id="desc">A transparent Raising The Bar Officiating shield placeholder with a female profile silhouette.</desc>
  <defs>
    <linearGradient id="chrome" x1="0" x2="1" y1="0" y2="1">
      <stop offset="0" stop-color="#f7f7f7"/>
      <stop offset=".18" stop-color="#595959"/>
      <stop offset=".38" stop-color="#ffffff"/>
      <stop offset=".55" stop-color="#111111"/>
      <stop offset=".72" stop-color="#cfcfcf"/>
      <stop offset="1" stop-color="#2b2b2b"/>
    </linearGradient>
    <linearGradient id="orange" x1="0" x2="1">
      <stop offset="0" stop-color="#c1121f"/>
      <stop offset=".48" stop-color="#c44d59"/>
      <stop offset="1" stop-color="#7f0d16"/>
    </linearGradient>
    <linearGradient id="body" x1="0" x2="0" y1="0" y2="1">
      <stop offset="0" stop-color="#747a80"/>
      <stop offset="1" stop-color="#41464b"/>
    </linearGradient>
    <filter id="softShadow" x="-20%" y="-20%" width="140%" height="140%">
      <feDropShadow dx="0" dy="10" stdDeviation="10" flood-color="#000000" flood-opacity=".5"/>
    </filter>
  </defs>

  <g filter="url(#softShadow)">
    <path d="M66 42 L256 14 L446 42 L421 407 Q397 547 256 665 Q115 547 91 407 Z" fill="none" stroke="url(#chrome)" stroke-width="18" stroke-linejoin="round"/>
    <path d="M86 61 L256 38 L426 61 L404 397 Q382 521 256 630 Q130 521 108 397 Z" fill="none" stroke="#090909" stroke-width="20" stroke-linejoin="round"/>
    <path d="M96 72 L256 50 L416 72 L395 392 Q374 507 256 610 Q138 507 117 392 Z" fill="none" stroke="url(#orange)" stroke-width="5" stroke-linejoin="round"/>
  </g>

  <g opacity=".98">
    <path d="M137 371 C160 324 200 306 256 306 C312 306 352 324 375 371 L404 501 L108 501 Z" fill="url(#body)" stroke="#20252a" stroke-width="4"/>
    <path d="M173 241 C173 184 208 148 256 148 C304 148 339 184 339 241 C339 291 304 337 256 337 C208 337 173 291 173 241 Z" fill="url(#body)" stroke="#20252a" stroke-width="4"/>
    <path d="M172 238 C150 282 150 333 170 384 C178 349 184 318 194 289 C180 276 172 258 172 238 Z" fill="#383d42" stroke="#20252a" stroke-width="4"/>
    <path d="M340 238 C362 282 362 333 342 384 C334 349 328 318 318 289 C332 276 340 258 340 238 Z" fill="#383d42" stroke="#20252a" stroke-width="4"/>
    <path d="M177 211 C194 167 224 143 260 143 C302 143 333 171 341 217 C312 185 289 178 258 178 C222 178 196 189 177 211 Z" fill="#353a3f" stroke="#1f2327" stroke-width="3"/>
    <path d="M211 376 C224 408 244 425 256 425 C268 425 288 408 301 376" fill="none" stroke="#2c3136" stroke-width="8" stroke-linecap="round"/>
  </g>

  <g filter="url(#softShadow)">
    <path d="M49 471 Q256 430 463 471 L437 565 Q256 532 75 565 Z" fill="#080808" stroke="url(#chrome)" stroke-width="9" stroke-linejoin="round"/>
    <path d="M67 486 Q256 454 445 486 L431 533 Q256 506 81 533 Z" fill="#141414" stroke="url(#orange)" stroke-width="3"/>
    <text x="256" y="519" text-anchor="middle" font-family="Arial Black, Impact, sans-serif" font-size="38" fill="#f4f4f4" stroke="#111" stroke-width="2" letter-spacing="1">RAISING THE BAR</text>
    <text x="256" y="553" text-anchor="middle" font-family="Arial Black, Impact, sans-serif" font-size="23" fill="#f4f4f4" letter-spacing="5">OFFICIATING</text>
    <text x="256" y="601" text-anchor="middle" font-family="Arial Black, Impact, sans-serif" font-size="26" fill="#ff9a1f" letter-spacing="8">***</text>
  </g>
</svg>
